<mxfile host="app.diagrams.net" modified="2024-05-15T23:28:36.974Z" agent="Mozilla/5.0 (Windows NT 10.0; Win64; x64) AppleWebKit/537.36 (KHTML, like Gecko) Chrome/123.0.0.0 Safari/537.36 OPR/109.0.0.0" version="24.4.2" etag="77Vnpz_k9Zi439s-HS9l" type="github">
  <diagram name="Page-1" id="xl90o_ncX3FtT9oaAQV7">
    <mxGraphModel>
      <root>
        <mxCell id="0" />
        <mxCell id="1" parent="0" />
      </root>
    </mxGraphModel>
  </diagram>
</mxfile>
